<svg width="62" height="63" viewBox="0 0 62 63" fill="none" xmlns="http://www.w3.org/2000/svg">
<path d="M13.2857 17.7833L6.99714 11.4617L11.16 7.25717L17.419 13.6086L13.2857 17.7833ZM33.9524 0.190063V9.13577H28.0476V0.190063H33.9524ZM55.0029 11.4617L48.7143 17.7833L44.581 13.6086L50.84 7.25717L55.0029 11.4617ZM8.85714 28.5181V34.4819H0V28.5181H8.85714ZM53.1429 28.5181H62V34.4819H53.1429V28.5181ZM13.2857 56.8462H48.7143C50.2803 56.8462 51.7822 57.4745 52.8896 58.5929C53.9969 59.7114 54.619 61.2283 54.619 62.81H7.38095C7.38095 61.2283 8.00306 59.7114 9.11042 58.5929C10.2178 57.4745 11.7197 56.8462 13.2857 56.8462ZM31 12.1177C35.6981 12.1177 40.2038 14.0027 43.5259 17.3579C46.848 20.7132 48.7143 25.264 48.7143 30.0091V53.8643H13.2857V30.0091C13.2857 25.264 15.152 20.7132 18.4741 17.3579C21.7962 14.0027 26.3019 12.1177 31 12.1177Z" fill="#03D6F3"/>
</svg>
